<svg id="Layer_35" enable-background="new 0 0 64 64" height="512" viewBox="0 0 64 64" width="512" xmlns="http://www.w3.org/2000/svg" xmlns:xlink="http://www.w3.org/1999/xlink"><linearGradient id="SVGID_1_" gradientUnits="userSpaceOnUse" x1="32" x2="32" y1="63" y2="1"><stop offset="0" stop-color="#9f2fff"/><stop offset="1" stop-color="#0bb1d3"/></linearGradient><path d="m16 63h27c8.271 0 15-6.729 15-15v-3h4.921l-8.921-12.744-8.921 12.744h4.921v3c0 3.86-3.141 7-7 7h-27c-3.859 0-7-3.14-7-7v-1h-8v1c0 8.271 6.729 15 15 15zm-8.944-14c.499 4.494 4.319 8 8.944 8h27c4.963 0 9-4.038 9-9v-5h-3.079l5.079-7.256 5.079 7.256h-3.079v5c0 7.168-5.832 13-13 13h-27c-6.832 0-12.449-5.297-12.962-12zm55.944-32v-1c0-8.271-6.729-15-15-15h-27c-8.271 0-15 6.729-15 15v3h-4.921l8.921 12.744 8.921-12.744h-4.921v-3c0-3.86 3.141-7 7-7h27c3.859 0 7 3.14 7 7v1zm-15-10h-27c-4.963 0-9 4.038-9 9v5h3.079l-5.079 7.256-5.079-7.256h3.079v-5c0-7.168 5.832-13 13-13h27c6.832 0 12.449 5.297 12.962 12h-4.018c-.499-4.494-4.319-8-8.944-8zm-5 6h-2v-2h2zm8 4v-1c0-1.654-1.346-3-3-3h-3v-2h3c2.757 0 5 2.243 5 5v1zm-32 27v9h26v-9c0-5.541-3.491-10.27-8.384-12.138 3.195-1.671 5.384-5.013 5.384-8.862 0-5.514-4.486-10-10-10s-10 4.486-10 10c0 3.849 2.189 7.191 5.384 8.862-4.893 1.868-8.384 6.597-8.384 12.138zm2 0c0-2.103.603-4.062 1.631-5.734l-.714 6.427 2.673.891-.771 1.541 3.1 3.875h-5.919zm18.917-.693-3.327 1.109 1.229 2.459-3.3 4.125h-1.222l4.326-16.437c.504.302.987.635 1.435 1.011zm-15.834 0 .86-7.734c.448-.376.931-.709 1.435-1.011l4.325 16.438h-1.222l-3.3-4.125 1.229-2.459zm18.917 7.693h-5.919l3.1-3.875-.771-1.541 2.673-.891-.714-6.427c1.028 1.672 1.631 3.631 1.631 5.734zm-19-28c0-4.411 3.589-8 8-8s8 3.589 8 8-3.589 8-8 8-8-3.589-8-8zm11.786 10.685-3.786 14.387-3.786-14.386c1.183-.436 2.454-.686 3.786-.686s2.603.25 3.786.685z" fill="url(#SVGID_1_)"/></svg>