<?xml version="1.0" encoding="iso-8859-1"?>
<!-- Generator: Adobe Illustrator 19.0.0, SVG Export Plug-In . SVG Version: 6.00 Build 0)  -->
<svg version="1.1" id="Capa_1" xmlns="http://www.w3.org/2000/svg" xmlns:xlink="http://www.w3.org/1999/xlink" x="0px" y="0px"
	 viewBox="0 0 480 480" style="enable-background:new 0 0 480 480;" xml:space="preserve">
<g>
	<path style="fill:#F4393D;" d="M0.848,116.244l15.509,3.26c0.876,4.81,2.15,9.538,3.81,14.137L8.283,144.288
		c3.346,7.763,7.628,15.087,12.75,21.812l14.993-4.924c3.168,3.734,6.637,7.203,10.372,10.371l-4.925,14.994
		c6.724,5.123,14.05,9.406,21.813,12.752l10.647-11.883c4.599,1.659,9.328,2.934,14.138,3.811l3.26,15.509h25.336l3.26-15.509
		c4.81-0.877,9.539-2.151,14.138-3.81l10.646,11.884c7.763-3.346,15.088-7.628,21.812-12.751l-4.924-14.993
		c3.735-3.168,7.203-6.637,10.371-10.372l14.994,4.925c5.124-6.724,9.406-14.049,12.752-21.812l-11.883-10.647
		c1.659-4.599,2.933-9.328,3.81-14.138l15.51-3.26V90.908l-15.51-3.26c-0.876-4.81-2.15-9.539-3.81-14.138l11.883-10.646
		c-3.346-7.763-7.628-15.087-12.75-21.811l-14.993,4.924c-3.168-3.735-6.637-7.203-10.372-10.371l4.925-14.994
		c-6.724-5.124-14.049-9.406-21.813-12.752l-10.647,11.883c-4.599-1.659-9.328-2.934-14.138-3.81l-3.26-15.51H91.332l-3.26,15.51
		c-4.81,0.876-9.539,2.15-14.138,3.81L63.289,7.86c-7.763,3.346-15.088,7.628-21.812,12.75l4.924,14.993
		c-3.734,3.168-7.203,6.637-10.371,10.372L21.036,41.05c-5.124,6.724-9.406,14.049-12.752,21.813l11.883,10.646
		c-1.659,4.599-2.934,9.328-3.81,14.138l-15.509,3.26 M104,159.576c-30.928,0-56-25.072-56-56s25.072-56,56-56s56,25.072,56,56
		S134.928,159.576,104,159.576z"/>
	<path style="fill:#F4393D;" d="M176,247.576v55.836c0,17.763-14.4,32.163-32.163,32.164c0,0,0,0,0,0H127.78
		c17.763-13.133,21.517-38.18,8.383-55.944s-38.18-21.517-55.944-8.383c-17.763,13.133-21.517,38.18-8.383,55.944
		c2.363,3.195,5.188,6.021,8.383,8.383H64.164C46.401,335.577,32,321.177,32,303.414c0,0,0-0.001,0-0.001v-55.836H0v72
		c0,30.928,25.072,56,56,56l0,0v104h96v-104c30.928,0,56-25.072,56-56v-72H176z"/>
</g>
<g>
	<path style="fill:#17AFDC;" d="M448,247.576v55.836c0,17.763-14.4,32.163-32.163,32.164c0,0,0,0,0,0H399.78
		c17.763-13.133,21.517-38.18,8.383-55.944c-13.133-17.763-38.18-21.517-55.944-8.383c-17.763,13.133-21.517,38.18-8.383,55.944
		c2.363,3.195,5.188,6.021,8.383,8.383h-16.056c-17.763,0-32.164-14.399-32.164-32.163c0,0,0-0.001,0-0.001v-55.836h-32v72
		c0,30.928,25.072,56,56,56v104h96v-104c30.928,0,56-25.072,56-56v-72H448z"/>
	<path style="fill:#17AFDC;" d="M479.153,116.245V90.908l-15.51-3.26c-0.876-4.81-2.15-9.539-3.81-14.138l11.883-10.646
		c-3.346-7.763-7.628-15.087-12.75-21.811l-14.993,4.924c-3.168-3.735-6.637-7.203-10.372-10.371l4.925-14.994
		c-6.724-5.124-14.049-9.406-21.813-12.752l-10.647,11.883c-4.599-1.659-9.328-2.934-14.138-3.81l-3.26-15.51h-25.336l-3.26,15.51
		c-4.81,0.876-9.539,2.15-14.138,3.81L335.289,7.86c-7.763,3.346-15.088,7.628-21.812,12.75l4.924,14.993
		c-3.734,3.168-7.203,6.637-10.371,10.372l-14.994-4.925c-5.124,6.724-9.406,14.049-12.752,21.813l11.883,10.646
		c-1.659,4.599-2.934,9.328-3.81,14.138l-15.51,3.26v25.337l15.509,3.26c0.876,4.81,2.15,9.538,3.81,14.137l-11.883,10.646
		c3.346,7.763,7.628,15.087,12.75,21.812l14.993-4.924c3.168,3.734,6.637,7.203,10.372,10.371l-4.925,14.994
		c6.724,5.123,14.05,9.406,21.813,12.752l10.647-11.883c4.599,1.659,9.328,2.934,14.138,3.811l3.26,15.509h25.336l3.26-15.509
		c4.81-0.877,9.539-2.151,14.138-3.81l10.646,11.884c7.763-3.346,15.088-7.628,21.812-12.751l-4.924-14.993
		c3.735-3.168,7.203-6.637,10.371-10.372l14.994,4.925c5.124-6.724,9.406-14.049,12.752-21.812l-11.883-10.647
		c1.659-4.599,2.933-9.328,3.81-14.138L479.153,116.245z M376,159.576c-30.928,0-56-25.072-56-56s25.072-56,56-56s56,25.072,56,56
		S406.928,159.576,376,159.576z"/>
	<path style="fill:#17AFDC;" d="M360,79.576v48l48-24L360,79.576z"/>
</g>
<path style="fill:#F4393D;" d="M88,79.576v48l48-24L88,79.576z"/>
<g>
	<path style="fill:#3F3F3F;" d="M392,447.576h16v16h-16V447.576z"/>
	<path style="fill:#3F3F3F;" d="M72,447.576h16v16H72V447.576z"/>
</g>
<path style="fill:#F99398;" d="M104,31.576c-39.764,0-72,32.235-72,72s32.236,72,72,72s72-32.236,72-72S143.764,31.576,104,31.576z
	 M104,159.576c-30.928,0-56-25.072-56-56s25.072-56,56-56s56,25.072,56,56S134.928,159.576,104,159.576z"/>
<path style="fill:#81E5FC;" d="M376,31.576c-39.764,0-72,32.235-72,72s32.236,72,72,72s72-32.236,72-72S415.764,31.576,376,31.576z
	 M376,159.576c-30.928,0-56-25.072-56-56s25.072-56,56-56s56,25.072,56,56S406.928,159.576,376,159.576z"/>
<g>
</g>
<g>
</g>
<g>
</g>
<g>
</g>
<g>
</g>
<g>
</g>
<g>
</g>
<g>
</g>
<g>
</g>
<g>
</g>
<g>
</g>
<g>
</g>
<g>
</g>
<g>
</g>
<g>
</g>
</svg>
