<?xml version="1.0" encoding="iso-8859-1"?>
<!-- Generator: Adobe Illustrator 19.0.0, SVG Export Plug-In . SVG Version: 6.00 Build 0)  -->
<svg version="1.1" id="Capa_1" xmlns="http://www.w3.org/2000/svg" xmlns:xlink="http://www.w3.org/1999/xlink" x="0px" y="0px"
	 viewBox="0 0 469.333 469.333" style="enable-background:new 0 0 469.333 469.333;" xml:space="preserve">
<path style="fill:#303C42;" d="M458.667,181.333c5.896,0,10.667-4.771,10.667-10.667S464.563,160,458.667,160h-32v-42.667h32
	c5.896,0,10.667-4.771,10.667-10.667c0-5.896-4.771-10.667-10.667-10.667h-32V85.333c0-23.531-19.135-42.667-42.667-42.667h-10.667
	v-32C373.333,4.771,368.563,0,362.667,0C356.771,0,352,4.771,352,10.667v32h-42.667v-32C309.333,4.771,304.563,0,298.667,0
	C292.771,0,288,4.771,288,10.667v32h-42.667v-32C245.333,4.771,240.563,0,234.667,0S224,4.771,224,10.667v32h-42.667v-32
	C181.333,4.771,176.563,0,170.667,0S160,4.771,160,10.667v32h-42.667v-32C117.333,4.771,112.563,0,106.667,0
	C100.771,0,96,4.771,96,10.667v32H85.333c-23.531,0-42.667,19.135-42.667,42.667V96h-32C4.771,96,0,100.771,0,106.667
	c0,5.896,4.771,10.667,10.667,10.667h32V160h-32C4.771,160,0,164.771,0,170.667s4.771,10.667,10.667,10.667h32V224h-32
	C4.771,224,0,228.771,0,234.667s4.771,10.667,10.667,10.667h32V288h-32C4.771,288,0,292.771,0,298.667
	c0,5.896,4.771,10.667,10.667,10.667h32V352h-32C4.771,352,0,356.771,0,362.667c0,5.896,4.771,10.667,10.667,10.667h32V384
	c0,23.531,19.135,42.667,42.667,42.667H96v32c0,5.896,4.771,10.667,10.667,10.667c5.896,0,10.667-4.771,10.667-10.667v-32H160v32
	c0,5.896,4.771,10.667,10.667,10.667s10.667-4.771,10.667-10.667v-32H224v32c0,5.896,4.771,10.667,10.667,10.667
	s10.667-4.771,10.667-10.667v-32H288v32c0,5.896,4.771,10.667,10.667,10.667c5.896,0,10.667-4.771,10.667-10.667v-32H352v32
	c0,5.896,4.771,10.667,10.667,10.667c5.896,0,10.667-4.771,10.667-10.667v-32H384c23.531,0,42.667-19.135,42.667-42.667v-10.667h32
	c5.896,0,10.667-4.771,10.667-10.667c0-5.896-4.771-10.667-10.667-10.667h-32v-42.667h32c5.896,0,10.667-4.771,10.667-10.667
	c0-5.896-4.771-10.667-10.667-10.667h-32v-42.667h32c5.896,0,10.667-4.771,10.667-10.667S464.563,224,458.667,224h-32v-42.667
	H458.667z"/>
<path style="fill:#7CB342;" d="M405.333,384c0,11.76-9.573,21.333-21.333,21.333H85.333C73.573,405.333,64,395.76,64,384V85.333
	C64,73.573,73.573,64,85.333,64H384c11.76,0,21.333,9.573,21.333,21.333V384z"/>
<path style="fill:#303C42;" d="M373.333,85.333H96c-5.896,0-10.667,4.771-10.667,10.667v277.333C85.333,379.229,90.104,384,96,384
	h277.333c5.896,0,10.667-4.771,10.667-10.667V96C384,90.104,379.229,85.333,373.333,85.333z"/>
<rect id="SVGCleanerId_0" x="106.667" y="106.667" style="fill:#F2F2F2;" width="256" height="256"/>
<g>
	<rect id="SVGCleanerId_0_1_" x="106.667" y="106.667" style="fill:#F2F2F2;" width="256" height="256"/>
</g>
<linearGradient id="SVGID_1_" gradientUnits="userSpaceOnUse" x1="-56.0352" y1="613.1464" x2="-48.328" y2="605.4461" gradientTransform="matrix(21.3333 0 0 -21.3333 1430.1112 13315.2227)">
	<stop  offset="0" style="stop-color:#000000;stop-opacity:0.1"/>
	<stop  offset="1" style="stop-color:#000000;stop-opacity:0"/>
</linearGradient>
<path style="fill:url(#SVGID_1_);" d="M381.219,88.961L381.219,88.961C382.9,90.846,384,93.272,384,96v277.333
	c0,5.896-4.771,10.667-10.667,10.667H96c-2.88,0-5.47-1.167-7.389-3.018l-0.005,0.005l24.345,24.346H384
	c11.76,0,21.333-9.573,21.333-21.333V113.076L381.219,88.961z"/>
<path style="fill:#303C42;" d="M208,218.667c5.896,0,10.667-4.771,10.667-10.667c0-8.813,7.177-16,16-16s16,7.188,16,16
	c0,7.833-2.76,15.458-7.771,21.458l-43.094,51.708c-2.646,3.188-3.219,7.604-1.458,11.354c1.75,3.75,5.521,6.146,9.656,6.146h53.333
	c5.896,0,10.667-4.771,10.667-10.667c0-5.896-4.771-10.667-10.667-10.667h-30.563l28.521-34.208C267.49,233.292,272,220.813,272,208
	c0-20.583-16.75-37.333-37.333-37.333s-37.333,16.75-37.333,37.333C197.333,213.896,202.104,218.667,208,218.667z"/>
<linearGradient id="SVGID_2_" gradientUnits="userSpaceOnUse" x1="-67.4125" y1="618.4561" x2="-44.6604" y2="607.846" gradientTransform="matrix(21.3333 0 0 -21.3333 1430.1112 13315.2227)">
	<stop  offset="0" style="stop-color:#FFFFFF;stop-opacity:0.2"/>
	<stop  offset="1" style="stop-color:#FFFFFF;stop-opacity:0"/>
</linearGradient>
<path style="fill:url(#SVGID_2_);" d="M458.667,181.333c5.896,0,10.667-4.771,10.667-10.667S464.563,160,458.667,160h-32v-42.667h32
	c5.896,0,10.667-4.771,10.667-10.667c0-5.896-4.771-10.667-10.667-10.667h-32V85.333c0-23.531-19.135-42.667-42.667-42.667h-10.667
	v-32C373.333,4.771,368.563,0,362.667,0C356.771,0,352,4.771,352,10.667v32h-42.667v-32C309.333,4.771,304.563,0,298.667,0
	C292.771,0,288,4.771,288,10.667v32h-42.667v-32C245.333,4.771,240.563,0,234.667,0S224,4.771,224,10.667v32h-42.667v-32
	C181.333,4.771,176.563,0,170.667,0S160,4.771,160,10.667v32h-42.667v-32C117.333,4.771,112.563,0,106.667,0
	C100.771,0,96,4.771,96,10.667v32H85.333c-23.531,0-42.667,19.135-42.667,42.667V96h-32C4.771,96,0,100.771,0,106.667
	c0,5.896,4.771,10.667,10.667,10.667h32V160h-32C4.771,160,0,164.771,0,170.667s4.771,10.667,10.667,10.667h32V224h-32
	C4.771,224,0,228.771,0,234.667s4.771,10.667,10.667,10.667h32V288h-32C4.771,288,0,292.771,0,298.667
	c0,5.896,4.771,10.667,10.667,10.667h32V352h-32C4.771,352,0,356.771,0,362.667c0,5.896,4.771,10.667,10.667,10.667h32V384
	c0,23.531,19.135,42.667,42.667,42.667H96v32c0,5.896,4.771,10.667,10.667,10.667c5.896,0,10.667-4.771,10.667-10.667v-32H160v32
	c0,5.896,4.771,10.667,10.667,10.667s10.667-4.771,10.667-10.667v-32H224v32c0,5.896,4.771,10.667,10.667,10.667
	s10.667-4.771,10.667-10.667v-32H288v32c0,5.896,4.771,10.667,10.667,10.667c5.896,0,10.667-4.771,10.667-10.667v-32H352v32
	c0,5.896,4.771,10.667,10.667,10.667c5.896,0,10.667-4.771,10.667-10.667v-32H384c23.531,0,42.667-19.135,42.667-42.667v-10.667h32
	c5.896,0,10.667-4.771,10.667-10.667c0-5.896-4.771-10.667-10.667-10.667h-32v-42.667h32c5.896,0,10.667-4.771,10.667-10.667
	c0-5.896-4.771-10.667-10.667-10.667h-32v-42.667h32c5.896,0,10.667-4.771,10.667-10.667S464.563,224,458.667,224h-32v-42.667
	H458.667z"/>
<g>
</g>
<g>
</g>
<g>
</g>
<g>
</g>
<g>
</g>
<g>
</g>
<g>
</g>
<g>
</g>
<g>
</g>
<g>
</g>
<g>
</g>
<g>
</g>
<g>
</g>
<g>
</g>
<g>
</g>
</svg>
