<?xml version="1.0" encoding="iso-8859-1"?>
<!-- Generator: Adobe Illustrator 19.0.0, SVG Export Plug-In . SVG Version: 6.00 Build 0)  -->
<svg version="1.1" id="Layer_1" xmlns="http://www.w3.org/2000/svg" xmlns:xlink="http://www.w3.org/1999/xlink" x="0px" y="0px"
	 viewBox="0 0 512 512" style="enable-background:new 0 0 512 512;" xml:space="preserve">
<path style="fill:#EFEFEF;" d="M495.304,450.783H16.696C7.475,450.783,0,443.307,0,434.087V177.731
	c0-9.22,7.475-16.696,16.696-16.696h478.609c9.22,0,16.696,7.475,16.696,16.696v256.356
	C512,443.307,504.525,450.783,495.304,450.783z"/>
<path style="fill:#C5D8DF;" d="M495.304,161.035H256v289.747h239.304c9.22,0,16.696-7.475,16.696-16.696V177.731
	C512,168.51,504.525,161.035,495.304,161.035z"/>
<path style="fill:#84DBFF;" d="M512,194.426H0V77.913c0-9.22,7.475-16.696,16.696-16.696h478.609c9.22,0,16.696,7.475,16.696,16.696
	V194.426z"/>
<path style="fill:#54C9EB;" d="M512,77.913c0-9.22-7.475-16.696-16.696-16.696H256v133.209h256V77.913z"/>
<path style="fill:#B7E183;" d="M157.263,363.232c-5.976-7.022-5.127-17.559,1.896-23.535l39.709-33.789l-39.709-33.789
	c-7.023-5.976-7.871-16.512-1.896-23.535c5.975-7.024,16.513-7.871,23.535-1.896l54.653,46.504c3.729,3.172,5.876,7.82,5.876,12.715
	c0,4.895-2.148,9.543-5.876,12.715l-54.653,46.504C173.776,371.103,163.238,370.254,157.263,363.232z"/>
<g>
	<path style="fill:#1BB3F9;" d="M443.568,147.769c-12.275,0-22.261-9.986-22.261-22.261s9.986-22.261,22.261-22.261
		s22.261,9.986,22.261,22.261S455.842,147.769,443.568,147.769z"/>
	<path style="fill:#1BB3F9;" d="M382.926,147.769c-12.275,0-22.261-9.986-22.261-22.261s9.986-22.261,22.261-22.261
		s22.261,9.986,22.261,22.261S395.201,147.769,382.926,147.769z"/>
	<path style="fill:#1BB3F9;" d="M322.285,147.769c-12.275,0-22.261-9.986-22.261-22.261s9.986-22.261,22.261-22.261
		s22.261,9.986,22.261,22.261S334.56,147.769,322.285,147.769z"/>
</g>
<path style="fill:#71DE56;" d="M342.022,369.107h-65.954c-9.22,0-16.696-7.475-16.696-16.696s7.475-16.696,16.696-16.696h65.954
	c9.22,0,16.696,7.475,16.696,16.696S351.242,369.107,342.022,369.107z"/>
<g>
</g>
<g>
</g>
<g>
</g>
<g>
</g>
<g>
</g>
<g>
</g>
<g>
</g>
<g>
</g>
<g>
</g>
<g>
</g>
<g>
</g>
<g>
</g>
<g>
</g>
<g>
</g>
<g>
</g>
</svg>
