<?xml version="1.0" encoding="iso-8859-1"?>
<!-- Generator: Adobe Illustrator 21.0.0, SVG Export Plug-In . SVG Version: 6.00 Build 0)  -->
<svg version="1.1" id="Capa_1" xmlns="http://www.w3.org/2000/svg" xmlns:xlink="http://www.w3.org/1999/xlink" x="0px" y="0px"
	 viewBox="0 0 512 512" style="enable-background:new 0 0 512 512;" xml:space="preserve">
<path style="fill:#5A5A5A;" d="M512,61v255l-30,30H32.701L0,316V61c0-24.901,20.099-45,45-45h422C491.901,16,512,36.099,512,61z"/>
<path style="fill:#444444;" d="M512,61v255l-30,30H256V16h211C491.901,16,512,36.099,512,61z"/>
<path style="fill:#A8EBFA;" d="M482,61v285H30V61c0-8.401,6.599-15,15-15h422C475.401,46,482,52.599,482,61z"/>
<path style="fill:#76E2F8;" d="M482,61v285H256V46h211C475.401,46,482,52.599,482,61z"/>
<path style="fill:#5A5A5A;" d="M360.099,476.199H151.901l30-90C183.701,380.2,189.401,376,196,376h120
	c6.599,0,12.299,4.2,14.099,10.199L360.099,476.199z"/>
<path style="fill:#444444;" d="M330.099,386.199l30,90H256V376h60C322.599,376,328.299,380.2,330.099,386.199z"/>
<path style="fill:#FDBF00;" d="M406,166c-24.814,0-45-20.186-45-45s20.186-45,45-45s45,20.186,45,45S430.814,166,406,166z"/>
<path style="fill:#ECECF1;" d="M421,271v60c0,8.399-6.599,15-15,15h-90.3c9.6-12.601,15.3-27.9,15.3-45c0-41.4-33.6-75-75-75
	s-75,33.6-75,75c0,17.1,5.7,32.399,15.3,45H106c-8.401,0-15-6.601-15-15v-60c0-8.401,6.599-15,15-15h23.101
	c1.5-4.501,3.3-8.701,5.4-12.9l-16.5-16.501c-5.7-5.7-5.7-15.298,0-20.999l42.599-42.601c5.7-5.7,15.3-5.7,21,0l16.5,16.501
	c4.2-2.1,8.399-3.9,12.9-5.402V151c0-8.401,6.599-15,15-15h60c8.401,0,15,6.599,15,15v23.099c4.501,1.501,8.699,3.301,12.9,5.402
	L330.4,163c5.7-5.7,15.3-5.7,21,0l42.599,42.601c5.7,5.7,5.7,15.298,0,20.999L377.5,243.1c2.1,4.199,3.9,8.399,5.4,12.9H406
	C414.401,256,421,262.599,421,271z"/>
<path style="fill:#E2E2E7;" d="M421,271v60c0,8.399-6.599,15-15,15h-90.3c9.6-12.601,15.3-27.9,15.3-45c0-41.4-33.6-75-75-75v-90h30
	c8.401,0,15,6.599,15,15v23.099c4.501,1.501,8.699,3.301,12.9,5.402L330.4,163c5.7-5.7,15.3-5.7,21,0l42.599,42.601
	c5.7,5.7,5.7,15.298,0,20.999L377.5,243.1c2.1,4.199,3.9,8.399,5.4,12.9H406C414.401,256,421,262.599,421,271z"/>
<path style="fill:#6E6E6E;" d="M512,316v45c0,24.899-20.099,45-45,45H45c-24.901,0-45-20.101-45-45v-45H512z"/>
<path style="fill:#5A5A5A;" d="M512,316v45c0,24.899-20.099,45-45,45H256v-90H512z"/>
<path style="fill:#6E6E6E;" d="M421,481c0,8.399-6.599,15-15,15H106c-8.401,0-15-6.601-15-15c0-8.401,6.599-15,15-15h300
	C414.401,466,421,472.599,421,481z"/>
<path style="fill:#5A5A5A;" d="M421,481c0,8.399-6.599,15-15,15H256v-30h150C414.401,466,421,472.599,421,481z"/>
<g>
</g>
<g>
</g>
<g>
</g>
<g>
</g>
<g>
</g>
<g>
</g>
<g>
</g>
<g>
</g>
<g>
</g>
<g>
</g>
<g>
</g>
<g>
</g>
<g>
</g>
<g>
</g>
<g>
</g>
</svg>
