<?xml version="1.0" encoding="iso-8859-1"?>
<!-- Generator: Adobe Illustrator 18.0.0, SVG Export Plug-In . SVG Version: 6.00 Build 0)  -->
<!DOCTYPE svg PUBLIC "-//W3C//DTD SVG 1.1//EN" "http://www.w3.org/Graphics/SVG/1.1/DTD/svg11.dtd">
<svg version="1.1" id="Capa_1" xmlns="http://www.w3.org/2000/svg" xmlns:xlink="http://www.w3.org/1999/xlink" x="0px" y="0px"
	 viewBox="0 0 55.981 55.981" style="enable-background:new 0 0 55.981 55.981;" xml:space="preserve">
<g>
	<g>
		<path style="fill:#3ABCA7;" d="M44.627,52H9.354c-4.619,0-8.364-3.745-8.364-8.364V8.364C0.991,3.745,4.735,0,9.354,0h35.272
			c4.619,0,8.364,3.745,8.364,8.364v35.272C52.991,48.255,49.246,52,44.627,52z"/>
		<path style="fill:#FFFFFF;" d="M44.991,14h-18c-0.553,0-1-0.447-1-1s0.447-1,1-1h18c0.553,0,1,0.447,1,1S45.543,14,44.991,14z"/>
		<path style="fill:#FFFFFF;" d="M44.991,28h-18c-0.553,0-1-0.447-1-1s0.447-1,1-1h18c0.553,0,1,0.447,1,1S45.543,28,44.991,28z"/>
		<path style="fill:#FFFFFF;" d="M44.991,42h-18c-0.553,0-1-0.447-1-1s0.447-1,1-1h18c0.553,0,1,0.447,1,1S45.543,42,44.991,42z"/>
		<path style="fill:#FFFFFF;" d="M13.061,17c-0.209,0-0.42-0.065-0.599-0.2l-4.571-3.429c-0.442-0.331-0.532-0.958-0.2-1.399
			c0.332-0.443,0.959-0.53,1.399-0.2l3.822,2.866l6.248-7.288c0.358-0.42,0.992-0.468,1.409-0.108
			c0.42,0.359,0.469,0.99,0.108,1.409l-6.857,8C13.625,16.881,13.344,17,13.061,17z"/>
		<path style="fill:#FFFFFF;" d="M13.061,31c-0.209,0-0.42-0.065-0.599-0.2l-4.571-3.429c-0.442-0.331-0.532-0.958-0.2-1.399
			c0.332-0.443,0.959-0.53,1.399-0.2l3.822,2.866l6.248-7.288c0.358-0.42,0.992-0.468,1.409-0.108
			c0.42,0.359,0.469,0.99,0.108,1.409l-6.857,8C13.625,30.881,13.344,31,13.061,31z"/>
		<path style="fill:#FFFFFF;" d="M13.061,45.999c-0.209,0-0.42-0.065-0.599-0.2L7.891,42.37c-0.442-0.331-0.532-0.958-0.2-1.399
			c0.332-0.443,0.959-0.531,1.399-0.2l3.822,2.866l6.248-7.287c0.358-0.42,0.992-0.468,1.409-0.108
			c0.42,0.359,0.469,0.99,0.108,1.409l-6.857,7.999C13.625,45.88,13.344,45.999,13.061,45.999z"/>
	</g>
	<g>
		<circle style="fill:#D0E8F9;" cx="40.768" cy="40.796" r="9.796"/>
		<path style="fill:#EAF6FD;" d="M44.321,31.674L31.647,44.348c0.706,1.81,1.93,3.357,3.495,4.459L48.78,35.17
			C47.678,33.604,46.131,32.38,44.321,31.674z"/>
		<path style="fill:#B1D3EF;" d="M54.713,54.291l-5.97-6.244c1.746-1.919,2.82-4.458,2.82-7.251C51.564,34.843,46.721,30,40.768,30
			s-10.796,4.843-10.796,10.796s4.843,10.796,10.796,10.796c2.442,0,4.689-0.824,6.499-2.196l6.001,6.276
			c0.196,0.206,0.459,0.309,0.723,0.309c0.249,0,0.497-0.092,0.691-0.277C55.081,55.323,55.095,54.689,54.713,54.291z
			 M31.972,40.796c0-4.85,3.946-8.796,8.796-8.796s8.796,3.946,8.796,8.796s-3.946,8.796-8.796,8.796S31.972,45.646,31.972,40.796z"
			/>
	</g>
</g>
<g>
</g>
<g>
</g>
<g>
</g>
<g>
</g>
<g>
</g>
<g>
</g>
<g>
</g>
<g>
</g>
<g>
</g>
<g>
</g>
<g>
</g>
<g>
</g>
<g>
</g>
<g>
</g>
<g>
</g>
</svg>
