<?xml version="1.0" encoding="iso-8859-1"?>
<!-- Generator: Adobe Illustrator 19.0.0, SVG Export Plug-In . SVG Version: 6.00 Build 0)  -->
<svg version="1.1" id="Capa_1" xmlns="http://www.w3.org/2000/svg" xmlns:xlink="http://www.w3.org/1999/xlink" x="0px" y="0px"
	 viewBox="0 0 512 512" style="enable-background:new 0 0 512 512;" xml:space="preserve">
<g>
	<path style="fill:#FFFFFF;" d="M8.533,365.39v99.087c0,17.41,14.113,31.523,31.523,31.523H102.4V379.733
		c0-19.3,28.459-36.21,71.241-45.867H40.056C22.647,333.867,8.533,347.98,8.533,365.39z"/>
	
		<linearGradient id="SVGID_1_" gradientUnits="userSpaceOnUse" x1="-48.6971" y1="653.4527" x2="-47.9721" y2="651.9645" gradientTransform="matrix(332.8 0 0 -162.1333 16292.334 106240.8828)">
		<stop  offset="0" style="stop-color:#D4E1F4"/>
		<stop  offset="0.1717" style="stop-color:#D4E1F4"/>
		<stop  offset="0.2" style="stop-color:#D4E1F4"/>
		<stop  offset="0.2001" style="stop-color:#DAE4F4"/>
		<stop  offset="0.2007" style="stop-color:#EBEBF4"/>
		<stop  offset="0.2014" style="stop-color:#F6F1F4"/>
		<stop  offset="0.2023" style="stop-color:#FDF4F4"/>
		<stop  offset="0.205" style="stop-color:#FFF5F4"/>
		<stop  offset="0.2522" style="stop-color:#FFF5F4"/>
		<stop  offset="0.26" style="stop-color:#FFF5F4"/>
		<stop  offset="0.26" style="stop-color:#D4E1F4"/>
		<stop  offset="0.3974" style="stop-color:#D4E1F4"/>
		<stop  offset="0.42" style="stop-color:#D4E1F4"/>
		<stop  offset="0.4201" style="stop-color:#DAE4F4"/>
		<stop  offset="0.4207" style="stop-color:#EBEBF4"/>
		<stop  offset="0.4214" style="stop-color:#F6F1F4"/>
		<stop  offset="0.4223" style="stop-color:#FDF4F4"/>
		<stop  offset="0.425" style="stop-color:#FFF5F4"/>
		<stop  offset="0.4894" style="stop-color:#FFF5F4"/>
		<stop  offset="0.5" style="stop-color:#FFF5F4"/>
		<stop  offset="0.5" style="stop-color:#F9F2F4"/>
		<stop  offset="0.5001" style="stop-color:#E8EBF4"/>
		<stop  offset="0.5003" style="stop-color:#DDE5F4"/>
		<stop  offset="0.5005" style="stop-color:#D6E2F4"/>
		<stop  offset="0.501" style="stop-color:#D4E1F4"/>
		<stop  offset="0.7062" style="stop-color:#D4E1F4"/>
		<stop  offset="0.74" style="stop-color:#D4E1F4"/>
		<stop  offset="0.741" style="stop-color:#FFF5F4"/>
		<stop  offset="0.8346" style="stop-color:#FFF5F4"/>
		<stop  offset="0.85" style="stop-color:#FFF5F4"/>
		<stop  offset="0.851" style="stop-color:#D4E1F4"/>
	</linearGradient>
	<path style="fill:url(#SVGID_1_);" d="M366.933,451.2h-0.506V333.867H63.8c-16.385,0-29.667,7.504-29.667,16.761v128.612
		C34.133,488.496,47.416,496,63.8,496h303.133V451.2z"/>
	<path style="fill:#FFFFFF;" d="M8.533,203.256v99.088c0,17.41,14.113,31.523,31.523,31.523H102.4V217.6
		c0-19.3,28.459-36.21,71.241-45.867H40.056C22.647,171.733,8.533,185.847,8.533,203.256z"/>
	
		<linearGradient id="SVGID_2_" gradientUnits="userSpaceOnUse" x1="-48.7158" y1="653.4582" x2="-47.9908" y2="651.97" gradientTransform="matrix(418.1334 0 0 -162.1333 20473.668 106078.75)">
		<stop  offset="0" style="stop-color:#D4E1F4"/>
		<stop  offset="0.1717" style="stop-color:#D4E1F4"/>
		<stop  offset="0.2" style="stop-color:#D4E1F4"/>
		<stop  offset="0.2001" style="stop-color:#DAE4F4"/>
		<stop  offset="0.2007" style="stop-color:#EBEBF4"/>
		<stop  offset="0.2014" style="stop-color:#F6F1F4"/>
		<stop  offset="0.2023" style="stop-color:#FDF4F4"/>
		<stop  offset="0.205" style="stop-color:#FFF5F4"/>
		<stop  offset="0.2522" style="stop-color:#FFF5F4"/>
		<stop  offset="0.26" style="stop-color:#FFF5F4"/>
		<stop  offset="0.26" style="stop-color:#D4E1F4"/>
		<stop  offset="0.3974" style="stop-color:#D4E1F4"/>
		<stop  offset="0.42" style="stop-color:#D4E1F4"/>
		<stop  offset="0.4201" style="stop-color:#DAE4F4"/>
		<stop  offset="0.4207" style="stop-color:#EBEBF4"/>
		<stop  offset="0.4214" style="stop-color:#F6F1F4"/>
		<stop  offset="0.4223" style="stop-color:#FDF4F4"/>
		<stop  offset="0.425" style="stop-color:#FFF5F4"/>
		<stop  offset="0.4894" style="stop-color:#FFF5F4"/>
		<stop  offset="0.5" style="stop-color:#FFF5F4"/>
		<stop  offset="0.5" style="stop-color:#F9F2F4"/>
		<stop  offset="0.5001" style="stop-color:#E8EBF4"/>
		<stop  offset="0.5003" style="stop-color:#DDE5F4"/>
		<stop  offset="0.5005" style="stop-color:#D6E2F4"/>
		<stop  offset="0.501" style="stop-color:#D4E1F4"/>
		<stop  offset="0.7062" style="stop-color:#D4E1F4"/>
		<stop  offset="0.74" style="stop-color:#D4E1F4"/>
		<stop  offset="0.741" style="stop-color:#FFF5F4"/>
		<stop  offset="0.8346" style="stop-color:#FFF5F4"/>
		<stop  offset="0.85" style="stop-color:#FFF5F4"/>
		<stop  offset="0.851" style="stop-color:#D4E1F4"/>
	</linearGradient>
	<path style="fill:url(#SVGID_2_);" d="M322.977,297.6v-80c0-19.3,10.585-36.21,129.289-45.867H131.076
		c-71.923,0-96.942,13.785-96.942,30.792v100.55c0,17.006,25.019,30.792,55.881,30.792h232.963V297.6z"/>
	<g>
		<path style="fill:#7FACFA;" d="M349.867,272c-84.831,0-153.6-24.356-153.6-54.4v80h0.286c4.68,28.553,71.519,51.2,153.314,51.2
			s148.634-22.647,153.314-51.2h0.286v-80C503.467,247.644,434.698,272,349.867,272z"/>
		<path style="fill:#7FACFA;" d="M196.267,214.4v3.2c0.008-1.073,0.104-2.143,0.286-3.2H196.267z"/>
		<path style="fill:#7FACFA;" d="M503.181,214.4c0.182,1.057,0.278,2.127,0.286,3.2v-3.2H503.181z"/>
	</g>
	<g>
		<path style="fill:#A4C2F7;" d="M324.267,274.133c-84.831,0-128-24.356-128-54.4v80h0.286c4.68,28.553,45.919,51.2,127.714,51.2
			s148.634-7.714,153.314-36.267h0.286v-80C477.867,264.711,409.098,274.133,324.267,274.133z"/>
		<path style="fill:#A4C2F7;" d="M196.267,216.533v3.2c0.008-1.073,0.104-2.143,0.286-3.2H196.267z"/>
		<path style="fill:#A4C2F7;" d="M477.581,231.467c0.182,1.057,0.278,2.127,0.286,3.2v-3.2H477.581z"/>
	</g>
	<g>
		<path style="fill:#7FACFA;" d="M349.867,348.8c-84.831,0-153.6-24.356-153.6-54.4v80h0.286c4.68,28.553,71.519,51.2,153.314,51.2
			s148.634-22.647,153.314-51.2h0.286v-80C503.467,324.444,434.698,348.8,349.867,348.8z"/>
		<path style="fill:#7FACFA;" d="M196.267,291.2v3.2c0.008-1.073,0.104-2.143,0.286-3.2H196.267z"/>
		<path style="fill:#7FACFA;" d="M503.181,291.2c0.182,1.057,0.278,2.127,0.286,3.2v-3.2H503.181z"/>
	</g>
	<g>
		<path style="fill:#A4C2F7;" d="M324.267,350.933c-84.831,0-128-24.356-128-54.4v80h0.286c4.68,28.553,45.919,51.2,127.714,51.2
			s148.634-7.714,153.314-36.267h0.286v-80C477.867,341.511,409.098,350.933,324.267,350.933z"/>
		<path style="fill:#A4C2F7;" d="M196.267,293.333v3.2c0.008-1.073,0.104-2.143,0.286-3.2H196.267z"/>
		<path style="fill:#A4C2F7;" d="M477.581,308.267c0.182,1.057,0.278,2.127,0.286,3.2v-3.2H477.581z"/>
	</g>
	<g>
		<path style="fill:#7FACFA;" d="M349.867,425.6c-84.831,0-153.6-24.356-153.6-54.4v80h0.286c4.68,28.553,71.519,51.2,153.314,51.2
			s148.634-22.647,153.314-51.2h0.286v-80C503.467,401.244,434.698,425.6,349.867,425.6z"/>
		<path style="fill:#7FACFA;" d="M196.267,368v3.2c0.008-1.073,0.104-2.143,0.286-3.2H196.267z"/>
		<path style="fill:#7FACFA;" d="M503.181,368c0.182,1.057,0.278,2.127,0.286,3.2V368H503.181z"/>
	</g>
	<g>
		<path style="fill:#A4C2F7;" d="M324.267,427.733c-84.831,0-128-24.356-128-54.4v80h0.286c4.68,28.553,45.919,51.2,127.714,51.2
			s148.634-7.714,153.314-36.267h0.286v-80C477.867,418.311,409.098,427.733,324.267,427.733z"/>
		<path style="fill:#A4C2F7;" d="M196.267,370.133v3.2c0.008-1.073,0.104-2.143,0.286-3.2H196.267z"/>
		<path style="fill:#A4C2F7;" d="M477.581,385.067c0.182,1.057,0.278,2.127,0.286,3.2v-3.2H477.581z"/>
		<ellipse style="fill:#A4C2F7;" cx="349.867" cy="217.6" rx="153.6" ry="54.4"/>
	</g>
	<path style="fill:#E3E7F2;" d="M477.867,217.6c0,30.044-43.169,54.4-128,54.4s-153.6-24.356-153.6-54.4s68.769-54.4,153.6-54.4
		S477.867,187.556,477.867,217.6z"/>
	<path style="fill:#FFFFFF;" d="M204.8,9.6H39.325c-8.166,0-15.999,3.244-21.773,9.019S8.533,32.225,8.533,40.392v100.55
		c0,8.166,3.244,15.999,9.019,21.773c5.775,5.775,13.607,9.019,21.773,9.019c0,0,12.329-8.533,42.667-8.533
		c27.682-0.167,55.299,2.695,82.359,8.533H204.8c8.166,0,15.998-3.244,21.773-9.019c5.775-5.775,9.019-13.607,9.019-21.773V40.392
		c0-8.166-3.244-15.999-9.019-21.773S212.966,9.6,204.8,9.6z"/>
	<path style="fill:#A4C2F7;" d="M472.675,9.6H307.2c-8.166,0-15.999,3.244-21.773,9.019c-5.775,5.775-9.019,13.607-9.019,21.773
		v100.55c0,8.166,3.244,15.999,9.019,21.773c5.775,5.775,13.607,9.019,21.773,9.019c0,0,12.329-8.533,42.667-8.533
		c27.682-0.167,55.299,2.695,82.359,8.533h40.449c8.166,0,15.999-3.244,21.773-9.019c5.775-5.775,9.019-13.607,9.019-21.773V40.392
		c0-8.166-3.244-15.999-9.019-21.773C488.674,12.844,480.841,9.6,472.675,9.6z"/>
	
		<linearGradient id="SVGID_3_" gradientUnits="userSpaceOnUse" x1="-48.7483" y1="653.4457" x2="-48.0233" y2="651.9575" gradientTransform="matrix(443.7334 0 0 -162.1333 21728.0684 105916.6172)">
		<stop  offset="0" style="stop-color:#D4E1F4"/>
		<stop  offset="0.1717" style="stop-color:#D4E1F4"/>
		<stop  offset="0.2" style="stop-color:#D4E1F4"/>
		<stop  offset="0.2001" style="stop-color:#DAE4F4"/>
		<stop  offset="0.2007" style="stop-color:#EBEBF4"/>
		<stop  offset="0.2014" style="stop-color:#F6F1F4"/>
		<stop  offset="0.2023" style="stop-color:#FDF4F4"/>
		<stop  offset="0.205" style="stop-color:#FFF5F4"/>
		<stop  offset="0.2522" style="stop-color:#FFF5F4"/>
		<stop  offset="0.26" style="stop-color:#FFF5F4"/>
		<stop  offset="0.26" style="stop-color:#D4E1F4"/>
		<stop  offset="0.3974" style="stop-color:#D4E1F4"/>
		<stop  offset="0.42" style="stop-color:#D4E1F4"/>
		<stop  offset="0.4201" style="stop-color:#DAE4F4"/>
		<stop  offset="0.4207" style="stop-color:#EBEBF4"/>
		<stop  offset="0.4214" style="stop-color:#F6F1F4"/>
		<stop  offset="0.4223" style="stop-color:#FDF4F4"/>
		<stop  offset="0.425" style="stop-color:#FFF5F4"/>
		<stop  offset="0.4894" style="stop-color:#FFF5F4"/>
		<stop  offset="0.5" style="stop-color:#FFF5F4"/>
		<stop  offset="0.5" style="stop-color:#F9F2F4"/>
		<stop  offset="0.5001" style="stop-color:#E8EBF4"/>
		<stop  offset="0.5003" style="stop-color:#DDE5F4"/>
		<stop  offset="0.5005" style="stop-color:#D6E2F4"/>
		<stop  offset="0.501" style="stop-color:#D4E1F4"/>
		<stop  offset="0.7062" style="stop-color:#D4E1F4"/>
		<stop  offset="0.74" style="stop-color:#D4E1F4"/>
		<stop  offset="0.741" style="stop-color:#FFF5F4"/>
		<stop  offset="0.8346" style="stop-color:#FFF5F4"/>
		<stop  offset="0.85" style="stop-color:#FFF5F4"/>
		<stop  offset="0.851" style="stop-color:#D4E1F4"/>
	</linearGradient>
	<path style="fill:url(#SVGID_3_);" d="M447.075,9.6H64.925c-8.166,0-15.999,3.244-21.773,9.019s-9.019,13.607-9.019,21.773v100.55
		c0,8.166,3.244,15.999,9.019,21.773c5.775,5.775,13.607,9.019,21.773,9.019h176.983c27.06-5.839,54.677-8.7,82.359-8.533
		c27.682-0.167,55.299,2.695,82.359,8.533h40.449c8.166,0,15.999-3.244,21.773-9.019c5.775-5.775,9.019-13.607,9.019-21.773V40.392
		c0-8.166-3.244-15.999-9.019-21.773C463.074,12.844,455.241,9.6,447.075,9.6z"/>
	<g>
		<circle style="fill:#7FACFA;" cx="89.6" cy="90.667" r="29.867"/>
		<circle style="fill:#7FACFA;" cx="89.6" cy="252.8" r="29.867"/>
		<circle style="fill:#7FACFA;" cx="89.6" cy="414.933" r="29.867"/>
	</g>
	<g>
		<path style="fill:#A4C2F7;" d="M72.809,62.273c0.336,2.522-0.444,5.066-2.136,6.966c-1.692,1.9-4.129,2.969-6.673,2.926v36.873
			c0.911-0.345,1.871-0.541,2.844-0.579c2.513-0.05,4.925,0.987,6.618,2.844c1.693,1.857,2.503,4.354,2.223,6.852
			c11.535-4.872,18.787-16.443,18.143-28.948S84.783,65.935,72.809,62.273L72.809,62.273z"/>
		<path style="fill:#A4C2F7;" d="M72.809,226.785c0.336,2.522-0.444,5.066-2.136,6.966c-1.692,1.9-4.129,2.969-6.673,2.926v36.873
			c0.911-0.345,1.871-0.541,2.844-0.579c2.513-0.05,4.925,0.987,6.618,2.844s2.503,4.354,2.223,6.852
			c11.535-4.872,18.787-16.443,18.143-28.948C93.185,241.213,84.783,230.448,72.809,226.785L72.809,226.785z"/>
		<path style="fill:#A4C2F7;" d="M72.809,388.919c0.336,2.522-0.444,5.066-2.136,6.966c-1.692,1.9-4.129,2.969-6.673,2.926v36.873
			c0.911-0.345,1.871-0.541,2.844-0.579c2.513-0.05,4.925,0.987,6.618,2.844c1.693,1.857,2.503,4.354,2.223,6.852
			c11.535-4.872,18.787-16.443,18.143-28.948C93.185,403.346,84.783,392.581,72.809,388.919L72.809,388.919z"/>
	</g>
	<g>
		<path style="fill:#428DFF;" d="M349.867,510.933c-74.138,0-152.329-19.267-161.279-56.117c-0.561-1.123-0.853-2.361-0.854-3.617
			v-80c0-4.713,3.821-8.533,8.533-8.533s8.533,3.82,8.533,8.533c0,21.65,62.037,45.867,145.067,45.867
			c83.025,0,145.067-24.217,145.067-45.867c0-4.713,3.821-8.533,8.533-8.533c4.713,0,8.533,3.82,8.533,8.533v80
			c0.002,1.325-0.307,2.632-0.9,3.817C501.9,491.742,423.867,510.933,349.867,510.933z M204.8,449.017
			c0.071,0.258,0.129,0.533,0.175,0.8c3.487,21.275,62.537,44.05,144.892,44.05c82.35,0,141.408-22.775,144.9-44.05
			c0.042-0.267,0.1-0.533,0.167-0.8V400.55c-28.442,21.975-88.05,33.583-145.067,33.583S233.242,422.525,204.8,400.55V449.017z"/>
		<path style="fill:#428DFF;" d="M196.267,379.733c-2.263,0.001-4.434-0.898-6.035-2.499c-1.6-1.6-2.499-3.771-2.499-6.035V368
			c-0.001-2.263,0.898-4.434,2.499-6.035c1.6-1.6,3.771-2.499,6.035-2.499h0.287c2.506,0.001,4.885,1.104,6.506,3.014
			c1.621,1.911,2.321,4.438,1.914,6.911c-0.108,0.597-0.167,1.202-0.175,1.808c0.001,2.263-0.898,4.434-2.499,6.035
			C200.701,378.835,198.53,379.734,196.267,379.733L196.267,379.733z"/>
		<path style="fill:#428DFF;" d="M503.467,379.733c-2.264,0.001-4.435-0.897-6.035-2.498c-1.601-1.601-2.499-3.772-2.498-6.035
			c-0.011-0.629-0.072-1.256-0.183-1.875c-0.383-2.464,0.33-4.973,1.951-6.868c1.621-1.895,3.989-2.987,6.483-2.991h0.283
			c2.264-0.001,4.435,0.897,6.035,2.498c1.601,1.601,2.499,3.772,2.498,6.035v3.2c0.001,2.264-0.897,4.435-2.498,6.035
			C507.901,378.836,505.73,379.735,503.467,379.733L503.467,379.733z"/>
		<path style="fill:#428DFF;" d="M349.867,434.133c-74.138,0-152.329-19.267-161.279-56.117c-0.561-1.123-0.853-2.361-0.854-3.617
			v-80c0-4.713,3.821-8.533,8.533-8.533s8.533,3.82,8.533,8.533c0,21.65,62.037,45.867,145.067,45.867
			c83.025,0,145.067-24.217,145.067-45.867c0-4.713,3.821-8.533,8.533-8.533c4.713,0,8.533,3.82,8.533,8.533v80
			c0.002,1.325-0.307,2.632-0.9,3.817C501.9,414.942,423.867,434.133,349.867,434.133z M204.8,372.217
			c0.071,0.258,0.129,0.533,0.175,0.8c3.487,21.275,62.537,44.05,144.892,44.05c82.35,0,141.408-22.775,144.9-44.05
			c0.042-0.267,0.1-0.533,0.167-0.8V323.75c-28.442,21.975-88.05,33.583-145.067,33.583S233.242,345.725,204.8,323.75V372.217z"/>
		<path style="fill:#428DFF;" d="M196.267,302.933c-2.263,0.001-4.434-0.898-6.035-2.499c-1.6-1.6-2.499-3.771-2.499-6.035v-3.2
			c-0.001-2.263,0.898-4.434,2.499-6.035c1.6-1.6,3.771-2.499,6.035-2.499h0.287c2.506,0.001,4.885,1.104,6.506,3.014
			c1.621,1.911,2.321,4.438,1.914,6.911c-0.108,0.597-0.167,1.202-0.175,1.808c0.001,2.263-0.898,4.434-2.499,6.035
			C200.701,302.035,198.53,302.934,196.267,302.933L196.267,302.933z"/>
		<path style="fill:#428DFF;" d="M503.467,302.933c-2.264,0.001-4.435-0.897-6.035-2.498c-1.601-1.601-2.499-3.772-2.498-6.035
			c-0.011-0.629-0.072-1.256-0.183-1.875c-0.383-2.464,0.33-4.973,1.951-6.868s3.989-2.987,6.483-2.991h0.283
			c2.264-0.001,4.435,0.897,6.035,2.498c1.601,1.601,2.499,3.772,2.498,6.035v3.2c0.001,2.264-0.897,4.435-2.498,6.035
			C507.901,302.036,505.73,302.935,503.467,302.933z"/>
		<path style="fill:#428DFF;" d="M349.867,280.533c-78.6,0-162.133-22.059-162.133-62.933s83.533-62.933,162.133-62.933
			S512,176.725,512,217.6S428.467,280.533,349.867,280.533z M349.867,171.733c-83.029,0-145.067,24.217-145.067,45.867
			s62.037,45.867,145.067,45.867c83.025,0,145.067-24.217,145.067-45.867S432.892,171.733,349.867,171.733z"/>
		<path style="fill:#428DFF;" d="M349.867,357.333c-74.138,0-152.329-19.267-161.279-56.117c-0.561-1.123-0.853-2.361-0.854-3.617
			v-80c0-4.713,3.821-8.533,8.533-8.533s8.533,3.821,8.533,8.533c0,21.65,62.037,45.867,145.067,45.867
			c83.025,0,145.067-24.217,145.067-45.867c0-4.713,3.821-8.533,8.533-8.533c4.713,0,8.533,3.821,8.533,8.533v80
			c0.002,1.325-0.307,2.632-0.9,3.817C501.9,338.142,423.867,357.333,349.867,357.333z M204.8,295.417
			c0.071,0.258,0.129,0.533,0.175,0.8c3.487,21.275,62.537,44.05,144.892,44.05c82.35,0,141.408-22.775,144.9-44.05
			c0.042-0.267,0.1-0.533,0.167-0.8V246.95c-28.442,21.975-88.05,33.583-145.067,33.583S233.242,268.925,204.8,246.95V295.417z"/>
		<path style="fill:#428DFF;" d="M196.267,226.133c-2.263,0.001-4.434-0.898-6.035-2.499c-1.6-1.6-2.499-3.771-2.499-6.035v-3.2
			c-0.001-2.263,0.898-4.434,2.499-6.035c1.6-1.6,3.771-2.499,6.035-2.499h0.287c2.506,0.001,4.885,1.104,6.506,3.014
			c1.621,1.911,2.321,4.438,1.914,6.911c-0.108,0.597-0.167,1.202-0.175,1.808c0.001,2.263-0.898,4.434-2.499,6.035
			C200.701,225.235,198.53,226.134,196.267,226.133z"/>
		<path style="fill:#428DFF;" d="M503.467,226.133c-2.264,0.001-4.435-0.897-6.035-2.498c-1.601-1.601-2.499-3.772-2.498-6.035
			c-0.011-0.629-0.072-1.256-0.183-1.875c-0.383-2.464,0.33-4.973,1.951-6.868c1.621-1.895,3.989-2.987,6.483-2.991h0.283
			c2.264-0.001,4.435,0.897,6.035,2.498c1.601,1.601,2.499,3.772,2.498,6.035v3.2c0.001,2.264-0.897,4.435-2.498,6.035
			C507.901,225.236,505.73,226.135,503.467,226.133L503.467,226.133z"/>
		<path style="fill:#428DFF;" d="M89.6,129.067c-21.208,0-38.4-17.192-38.4-38.4s17.192-38.4,38.4-38.4s38.4,17.192,38.4,38.4
			C127.977,111.865,110.798,129.044,89.6,129.067z M89.6,69.333c-11.782,0-21.333,9.551-21.333,21.333S77.818,112,89.6,112
			s21.333-9.551,21.333-21.333C110.921,78.89,101.377,69.346,89.6,69.333z"/>
		<circle style="fill:#428DFF;" cx="426.667" cy="77.867" r="8.533"/>
		<circle style="fill:#428DFF;" cx="392.533" cy="77.867" r="8.533"/>
		<circle style="fill:#428DFF;" cx="443.733" cy="103.467" r="8.533"/>
		<circle style="fill:#428DFF;" cx="409.6" cy="103.467" r="8.533"/>
		<circle style="fill:#428DFF;" cx="358.4" cy="77.867" r="8.533"/>
		<circle style="fill:#428DFF;" cx="375.467" cy="103.467" r="8.533"/>
		<circle style="fill:#428DFF;" cx="324.267" cy="77.867" r="8.533"/>
		<circle style="fill:#428DFF;" cx="341.333" cy="103.467" r="8.533"/>
		<circle style="fill:#428DFF;" cx="290.133" cy="77.867" r="8.533"/>
		<circle style="fill:#428DFF;" cx="307.2" cy="103.467" r="8.533"/>
		<path style="fill:#428DFF;" d="M89.6,291.2c-21.208,0-38.4-17.192-38.4-38.4s17.192-38.4,38.4-38.4s38.4,17.192,38.4,38.4
			C127.977,273.998,110.798,291.177,89.6,291.2z M89.6,231.467c-11.782,0-21.333,9.551-21.333,21.333
			c0,11.782,9.551,21.333,21.333,21.333s21.333-9.551,21.333-21.333C110.921,241.023,101.377,231.479,89.6,231.467L89.6,231.467z"/>
		<path style="fill:#428DFF;" d="M89.6,453.333c-21.208,0-38.4-17.192-38.4-38.4c0-21.208,17.192-38.4,38.4-38.4
			s38.4,17.192,38.4,38.4C127.977,436.132,110.798,453.31,89.6,453.333L89.6,453.333z M89.6,393.6
			c-11.782,0-21.333,9.551-21.333,21.333c0,11.782,9.551,21.333,21.333,21.333s21.333-9.551,21.333-21.333
			C110.921,403.156,101.377,393.612,89.6,393.6z"/>
		<path style="fill:#428DFF;" d="M472.675,180.267h-40.45c-0.631,0.002-1.26-0.068-1.875-0.208c-53.101-10.9-107.862-10.9-160.962,0
			c-0.617,0.14-1.247,0.21-1.879,0.208H39.325C17.617,180.242,0.025,162.65,0,140.942V40.392
			c0.025-21.708,17.617-39.3,39.325-39.325h433.35c21.708,0.025,39.3,17.617,39.325,39.325v100.55
			C511.975,162.65,494.383,180.242,472.675,180.267z M433.167,163.2h39.508c12.288-0.013,22.246-9.971,22.258-22.258V40.392
			c-0.013-12.288-9.971-22.246-22.258-22.258H39.325c-12.288,0.013-22.246,9.971-22.258,22.258v100.55
			c0.013,12.288,9.971,22.246,22.258,22.258h227.237C321.536,152.033,378.193,152.033,433.167,163.2L433.167,163.2z"/>
		<path style="fill:#428DFF;" d="M196.267,342.4H39.325C17.617,342.375,0.025,324.783,0,303.075v-100.55
			c0.025-21.708,17.617-39.3,39.325-39.325h228.183c4.346,0.002,7.997,3.269,8.479,7.589c0.482,4.32-2.36,8.311-6.599,9.27
			C224.771,190.133,204.8,206.167,204.8,217.6v116.267c0.001,2.263-0.898,4.434-2.499,6.035
			C200.701,341.502,198.53,342.401,196.267,342.4z M39.325,180.267c-12.288,0.013-22.246,9.971-22.258,22.258v100.55
			c0.013,12.288,9.971,22.246,22.258,22.258h148.408V217.6c0-14.117,10.454-26.933,29.729-37.333H39.325z"/>
		<path style="fill:#428DFF;" d="M277.667,504.533H39.325C17.617,504.508,0.025,486.917,0,465.208v-100.55
			c0.025-21.708,17.617-39.3,39.325-39.325h156.942c2.263-0.001,4.434,0.898,6.035,2.499c1.6,1.6,2.499,3.771,2.499,6.035v115.15
			c0.071,0.258,0.129,0.533,0.175,0.8c2,12.2,25.742,28.617,74.279,37.8c4.327,0.819,7.32,4.796,6.909,9.181
			C285.751,501.183,282.071,504.534,277.667,504.533z M39.325,342.4c-12.288,0.013-22.246,9.971-22.258,22.258v100.55
			c0.013,12.288,9.971,22.246,22.258,22.258h182.154c-18.3-9.008-29.683-20.067-32.829-32.417c-0.605-1.193-0.919-2.512-0.917-3.85
			V342.4H39.325z"/>
	</g>
</g>
<g>
</g>
<g>
</g>
<g>
</g>
<g>
</g>
<g>
</g>
<g>
</g>
<g>
</g>
<g>
</g>
<g>
</g>
<g>
</g>
<g>
</g>
<g>
</g>
<g>
</g>
<g>
</g>
<g>
</g>
</svg>
