<svg id="Layer_1" enable-background="new 0 0 512 512" height="512" viewBox="0 0 512 512" width="512" xmlns="http://www.w3.org/2000/svg"><path d="m512 331c0-90.901-75.099-165-166-165s-165 74.099-165 165c0 90.899 74.099 165 165 165h166l-44.399-53.401c28.498-30.3 44.399-70.199 44.399-111.599z" fill="#ff637b"/><path d="m467.601 442.599 44.399 53.401h-166v-330c90.901 0 166 74.099 166 165 0 41.4-15.901 81.299-44.399 111.599z" fill="#e63950"/><path d="m166 16c-90.901 0-166 74.099-166 165 0 41.4 16.901 81.299 45.399 111.599l-45.399 53.401h166c90.901 0 165-74.101 165-165 0-90.901-74.099-165-165-165z" fill="#57d9ad"/><path d="m331 181c0 90.899-74.099 165-165 165v-330c90.901 0 165 74.099 165 165z" fill="#26bfa6"/><g fill="#e1ebf0"><path d="m151 91h30v30h-30z"/><path d="m151 241h30v30h-30z"/><path d="m97.974 112.974h29.997v29.997h-29.997z" transform="matrix(.707 .707 -.707 .707 123.579 -42.401)"/></g><path d="m204.029 219.029h29.997v29.997h-29.997z" fill="#cde1e6" transform="matrix(.707 .707 -.707 .707 229.634 -86.331)"/><path d="m76 166h30v30h-30z" fill="#e1ebf0"/><path d="m226 166h30v30h-30z" fill="#cde1e6"/><path d="m97.974 219.029h29.997v29.997h-29.997z" fill="#e1ebf0" transform="matrix(.707 .707 -.707 .707 198.571 -11.339)"/><path d="m204.029 112.974h29.997v29.997h-29.997z" fill="#cde1e6" transform="matrix(.707 .707 -.707 .707 154.642 -117.393)"/><path d="m166 91h15v30h-15z" fill="#cde1e6"/><path d="m166 241h15v30h-15z" fill="#cde1e6"/><path d="m166 106c-41.4 0-75 33.6-75 75s33.6 75 75 75 75-33.6 75-75-33.6-75-75-75zm15 90h-30v-30h30z" fill="#e1ebf0"/><path d="m241 181c0 41.4-33.6 75-75 75v-60h15v-30h-15v-60c41.4 0 75 33.6 75 75z" fill="#cde1e6"/></svg>